<svg width="100" height="100" viewBox="0 0 100 100" fill="none" xmlns="http://www.w3.org/2000/svg">
<path d="M68.25 43.375C70.125 43.375 71.7188 42.7188 73.0312 41.4062C74.3438 40.0938 75 38.5 75 36.625C75 34.75 74.3438 33.1562 73.0312 31.8438C71.7188 30.5312 70.125 29.875 68.25 29.875C66.375 29.875 64.7812 30.5312 63.4688 31.8438C62.1562 33.1562 61.5 34.75 61.5 36.625C61.5 38.5 62.1562 40.0938 63.4688 41.4062C64.7812 42.7188 66.375 43.375 68.25 43.375ZM31.75 43.375C33.625 43.375 35.2188 42.7188 36.5312 41.4062C37.8438 40.0938 38.5 38.5 38.5 36.625C38.5 34.75 37.8438 33.1562 36.5312 31.8438C35.2188 30.5312 33.625 29.875 31.75 29.875C29.875 29.875 28.2812 30.5312 26.9688 31.8438C25.6562 33.1562 25 34.75 25 36.625C25 38.5 25.6562 40.0938 26.9688 41.4062C28.2812 42.7188 29.875 43.375 31.75 43.375ZM50 77.375C55.5 77.375 60.5625 75.8958 65.1875 72.9375C69.8125 69.9792 73.1667 65.9583 75.25 60.875H68.75C66.8333 64.2083 64.2083 66.7708 60.875 68.5625C57.5417 70.3542 53.9375 71.25 50.0625 71.25C46.1875 71.25 42.5625 70.375 39.1875 68.625C35.8125 66.875 33.2083 64.2917 31.375 60.875H24.75C26.9167 65.9583 30.2917 69.9792 34.875 72.9375C39.4583 75.8958 44.5 77.375 50 77.375ZM50 100C43.0833 100 36.5833 98.6875 30.5 96.0625C24.4167 93.4375 19.125 89.875 14.625 85.375C10.125 80.875 6.5625 75.5833 3.9375 69.5C1.3125 63.4167 0 56.9167 0 50C0 43.0833 1.3125 36.5833 3.9375 30.5C6.5625 24.4167 10.125 19.125 14.625 14.625C19.125 10.125 24.4167 6.5625 30.5 3.9375C36.5833 1.3125 43.0833 0 50 0C56.9167 0 63.4167 1.3125 69.5 3.9375C75.5833 6.5625 80.875 10.125 85.375 14.625C89.875 19.125 93.4375 24.4167 96.0625 30.5C98.6875 36.5833 100 43.0833 100 50C100 56.9167 98.6875 63.4167 96.0625 69.5C93.4375 75.5833 89.875 80.875 85.375 85.375C80.875 89.875 75.5833 93.4375 69.5 96.0625C63.4167 98.6875 56.9167 100 50 100ZM50 92.5C61.8646 92.5 71.9141 88.3828 80.1485 80.1485C88.3828 71.9141 92.5 61.8646 92.5 50C92.5 38.1354 88.3828 28.0859 80.1485 19.8515C71.9141 11.6172 61.8646 7.5 50 7.5C38.1354 7.5 28.0859 11.6172 19.8515 19.8515C11.6172 28.0859 7.5 38.1354 7.5 50C7.5 61.8646 11.6172 71.9141 19.8515 80.1485C28.0859 88.3828 38.1354 92.5 50 92.5Z" fill="#37BD6D"/>
</svg>
